<svg width="344" height="52" viewBox="0 0 344 52" fill="none" xmlns="http://www.w3.org/2000/svg">
<rect width="344" height="52" rx="12" fill="white"/>
<path d="M125.308 33H123.616L123.418 31.452C122.662 32.694 121.384 33.27 119.872 33.27C116.506 33.27 114.292 30.858 114.292 26.898C114.292 22.956 116.506 20.49 120.088 20.49C122.626 20.49 124.768 21.876 125.326 24.54H122.788C122.41 23.226 121.384 22.506 120.016 22.506C117.964 22.506 116.776 24.162 116.776 26.898C116.776 29.634 118.018 31.254 120.106 31.254C121.618 31.254 122.842 30.39 123.004 28.356H120.358V26.52H125.308V33ZM127.503 33V20.76H136.107V22.686H129.933V25.746H135.423V27.654H129.933V31.074H136.107V33H127.503ZM141.272 33V22.758H137.33V20.76H147.644V22.758H143.702V33H141.272ZM154.498 23.838C154.498 26.772 161.824 24.396 161.824 29.4C161.824 31.866 159.808 33.27 157.036 33.27C154.246 33.27 152.266 31.974 151.798 29.31H154.336C154.642 30.606 155.578 31.326 157.054 31.326C158.566 31.326 159.34 30.696 159.34 29.706C159.34 26.592 152.032 28.932 152.032 24.054C152.032 22.11 153.634 20.49 156.532 20.49C158.998 20.49 161.086 21.678 161.482 24.432H158.908C158.62 23.064 157.774 22.434 156.46 22.434C155.236 22.434 154.498 22.992 154.498 23.838ZM166.215 33V22.758H162.273V20.76H172.587V22.758H168.645V33H166.215ZM181.334 33L180.398 30.462H175.178L174.242 33H171.812L176.42 20.76H179.282L183.89 33H181.334ZM177.428 24.396L175.88 28.59H179.696L178.148 24.396L177.788 23.136L177.428 24.396ZM185.317 33V20.76H190.105C192.859 20.76 194.569 22.146 194.569 24.378C194.569 25.746 193.975 26.7 192.931 27.258C193.561 27.654 193.939 28.302 194.191 29.31L195.109 33H192.589L191.869 29.76C191.581 28.5 191.113 28.248 189.907 28.248H187.747V33H185.317ZM190.051 22.686H187.747V26.34H189.997C191.365 26.34 192.085 25.62 192.085 24.504C192.085 23.406 191.347 22.686 190.051 22.686ZM199.684 33V22.758H195.742V20.76H206.056V22.758H202.114V33H199.684ZM207.747 33V20.76H216.351V22.686H210.177V25.746H215.667V27.654H210.177V31.074H216.351V33H207.747ZM218.294 33V20.76H222.74C226.574 20.76 228.968 23.082 228.968 26.898C228.968 30.714 226.574 33 222.74 33H218.294ZM222.74 31.038C225.098 31.038 226.502 29.508 226.502 26.898C226.502 24.27 225.098 22.722 222.74 22.722H220.724V31.038H222.74Z" fill="#F1784F"/>
</svg>
