<svg width="3136" height="2756" viewBox="0 0 3136 2756" fill="none" xmlns="http://www.w3.org/2000/svg">
<path fill-rule="evenodd" clip-rule="evenodd" d="M1555.84 300.175C2276.36 907.807 3032.69 674.937 3117.5 1374.28C3207.58 2117.63 2966.61 1670.25 2386.25 2134.05C1539.26 2810.99 267.421 2574.8 220.317 1367.21C188.969 562.71 983.405 -182.551 1555.84 300.175Z" fill="#F5F2FD"/>
<path d="M27.2811 1929.86C33.6311 1915.78 37.4331 1901.42 44.9231 1889.56C53.3711 1878.01 67.5771 1869.09 82.2731 1874.32C148.058 1895.63 214.215 1895.14 249.817 1840.79C249.575 1841.62 249.478 1842.48 249.53 1843.34C249.54 1844.14 250.498 1844.44 251.293 1844.43C252.108 1846.02 255.144 1847.25 256.744 1848.03C265.06 1851.74 274.444 1852.11 283.501 1851.04C294.929 1849.15 304.22 1841.57 314.173 1836.04C320.597 1832.19 327.375 1828.97 334.414 1826.41C334.574 1830.11 334.191 1833.81 333.275 1837.4C333.089 1837.34 332.892 1837.33 332.7 1837.36C332.508 1837.39 332.325 1837.46 332.164 1837.57C324.185 1848.48 307.526 1851.87 293.627 1859.83C281.768 1865.54 272.017 1874.56 263.712 1884.84C255.851 1894.02 249.434 1904.34 244.68 1915.45C233.522 1939.6 230.507 1966.36 229.235 1992.62C229.135 1997.87 226.46 2026.05 235.311 2021.49C243.789 2012.32 248.261 2000.82 257.572 1994.82C284.537 1975.72 318.219 1972.77 342.108 1949.26C366.141 1924.48 383.534 1876.71 353.786 1850.03C349.384 1846.25 344.336 1843.3 338.886 1841.31C337.928 1841 337.286 1840.53 336.328 1840.23C337.684 1835.25 338.265 1830.09 338.051 1824.94C343.706 1823.18 349.595 1822.31 355.515 1822.34C364.261 1822.23 373.342 1823.55 381.906 1821.54C396.659 1818.34 408.278 1805.95 412.396 1791.43C413.612 1786.8 415.451 1781.05 415.383 1775.48C422.77 1781.28 430.788 1786.75 439.889 1789.66C452.975 1793.32 469.337 1791.69 474.403 1776.68C477.468 1767.1 475.12 1757.11 474.209 1747.58C473.337 1741.23 475.29 1731.82 476.468 1724.01C477.11 1727.56 478.448 1730.95 480.406 1733.98C482.84 1737.93 485.589 1741.71 488.339 1745.5C487 1766.19 486.801 1789.1 498.154 1807.25C469.954 1802.98 463.661 1848.22 424.268 1826.12C419.152 1823.95 405.347 1813.46 403.557 1823.19C403.116 1826.21 404.419 1828.74 405.406 1831.43C408.031 1838.1 411.645 1844.33 416.128 1849.91C429.684 1866.13 453.05 1878.09 474.135 1872.43C481.587 1870.59 488.513 1864.62 493.082 1861.07C498.526 1857.19 504.558 1854.22 510.947 1852.27C523.937 1847.97 537.913 1846.37 549.437 1839.23C552.092 1837.49 554.523 1835.43 556.678 1833.1C558.557 1843.73 565.839 1853.98 581.54 1863.49C602.828 1874.53 623.893 1880.48 640.966 1898.08C643.859 1900.59 649.684 1908.79 653.555 1913.2C658.394 1918.71 661.861 1916.12 662.895 1909.59C670.221 1884.21 671.473 1856.36 659.726 1832.01C654.326 1819.19 645.556 1804.51 642.077 1793.1C639.882 1782.63 640.102 1774.51 640.762 1763.37C642.159 1747.33 646.958 1731.76 654.84 1717.72C657.64 1712.27 661.871 1707.29 665.309 1702.32C673.109 1715.9 674.595 1733.54 671.741 1747.41C667.212 1767.35 656.015 1788.32 664.533 1808.73C667.993 1818.55 674.622 1827.53 685.151 1830.11C690.899 1831.95 697.26 1831.87 702.851 1834.19C706.055 1835.33 709.115 1836.84 711.972 1838.69L713.409 1839.15C713.686 1839.07 713.943 1838.94 714.166 1838.76C714.388 1838.57 714.571 1838.35 714.702 1838.09C714.833 1837.84 714.911 1837.56 714.929 1837.27C714.948 1836.99 714.907 1836.7 714.809 1836.43C717.318 1833.53 719.119 1824.61 720.209 1822.84C732.985 1787.86 752.449 1766.63 739.225 1725.44C737.604 1720.19 735.629 1715.06 733.313 1710.08C736.963 1709.4 740.449 1708.4 744.099 1707.72C763.919 1702.71 784.927 1703.89 801.913 1714.34C807.513 1717.45 815.047 1721.97 818.429 1725.43C820.518 1727.15 821.668 1730.16 824.379 1730.77C829.619 1730.07 825.24 1723.12 824.886 1720.1C820.238 1704.1 817.822 1688.54 818.586 1672.94C818.728 1645.27 833.852 1620.27 841.475 1593.14C846.913 1569.54 842.15 1543.99 831.075 1522.49C815.611 1493.26 781.199 1475.39 748.898 1487.23L743.84 1489.83C732.046 1474.71 714.428 1464.59 696.379 1458.28C684.879 1453.81 672.765 1452.05 661.106 1448.06C640.337 1440.36 616.023 1428.88 596.462 1442.16C596.769 1441.2 597.238 1440.56 597.392 1440.08C609.862 1419.25 610.511 1394.12 612.77 1370.55C613.22 1359.08 615.167 1347.72 618.563 1336.76C618.584 1336.81 618.613 1336.84 618.648 1336.87C618.684 1336.9 618.725 1336.93 618.77 1336.94C618.815 1336.96 618.862 1336.96 618.909 1336.96C618.955 1336.95 619.001 1336.94 619.042 1336.92C626.504 1335.87 633.555 1340.24 642.158 1341.41C649.93 1342.16 657.751 1342.28 665.542 1341.76C667.342 1346.03 669.142 1350.3 671.894 1354.09C678.361 1362.76 687.184 1369.01 697.1 1373.5C719.326 1383.25 729.43 1364.05 739.1 1347.86C742.692 1342.41 748.851 1338.84 754.991 1333.68C761.139 1328.58 766.201 1322.3 769.876 1315.2C775.786 1304.16 777.844 1290.3 772.929 1278.43C769.335 1270.68 761.029 1267.76 753.366 1265.31C741.554 1261.79 729.608 1260.35 718.102 1255.87C709.797 1252.95 702.267 1248.43 693.491 1246.15C686.791 1244.01 679.476 1244.57 672.646 1245.29C665.339 1246.9 657.892 1247.79 650.412 1247.95C654.644 1229.76 658.063 1210 668.886 1197.62C678.446 1185.9 692.7 1180.95 707.165 1180.3C709.316 1180.05 711.496 1180.29 713.536 1181.02C719.715 1192.24 727.486 1203.43 740.256 1207.25C749.366 1210.96 760.794 1209.07 767.711 1202.31C768.851 1200.89 769.795 1199.33 770.517 1197.66C775.988 1216.05 787.561 1226.08 807.583 1224.57C813.149 1224.5 818.542 1223.32 824.098 1222.46C826.321 1222.11 828.859 1221.61 830.598 1220.31C834.382 1217.56 834.783 1211.36 830.779 1209.02C825.021 1206.39 818.057 1209.17 812.185 1210.2C805.685 1211.55 801.571 1213.67 796.618 1211.82C788.945 1208.57 782.161 1200.07 775.407 1193.95C785.715 1191.43 794.872 1185.92 800.807 1177.26C807.397 1169.86 814.83 1166.43 824.822 1164.08C834.181 1162.06 844.322 1159.23 850.753 1151.52C859.823 1138.84 859.898 1118.8 847.836 1107.82C829.826 1091.5 808.473 1101.3 809.089 1125.79C809.022 1133.42 810.096 1143.27 808.411 1148.54C805.949 1155.41 799.972 1160.89 792.232 1165.27C785.747 1168.22 779.108 1171.64 774.721 1177.1C774.662 1159.13 762.15 1150.37 747.052 1138.15C734.939 1128.41 721.012 1121.17 706.078 1116.86C700.014 1115.18 693.145 1112.72 686.813 1115.18C680.013 1118.28 681.545 1126.7 685.263 1131.58C693.052 1144.37 708.418 1152.45 709.215 1165.65C710.039 1168.02 708.815 1171.85 709.168 1174.87C693.735 1174.42 677.584 1180.34 667.23 1192.08C652.938 1207.04 650.487 1227.91 645.949 1247.05C633.549 1247.84 620.831 1247.99 608.444 1249.57C607.966 1249.42 607.65 1249.58 607.18 1250.22C606.785 1250.03 606.334 1249.98 605.906 1250.08C605.524 1250.22 605.184 1250.46 604.921 1250.77C604.658 1251.09 604.48 1251.46 604.405 1251.86C604.33 1252.26 604.36 1252.68 604.492 1253.06C604.624 1253.45 604.854 1253.79 605.159 1254.07C617.12 1260.12 627.515 1268.87 635.529 1279.62C627.36 1301.03 617.274 1321.83 611.978 1344.16C606.702 1368.08 608.778 1394.62 602.358 1416.33C599.629 1427.33 594.629 1434.71 589.984 1445.1C590.453 1444.46 589.83 1445.58 589.208 1446.7C587.845 1448.07 586.782 1449.71 586.085 1451.51L585.606 1451.36C561.177 1443.55 536.751 1462.13 516.006 1469.22C509.195 1471.53 501.732 1472.58 496.177 1473.44C490.142 1474.15 473.128 1474.51 485.161 1483.12C497.347 1491.24 510.788 1497.92 522.667 1506.99C529.421 1513.12 535.735 1522.26 540.296 1531.11C552.522 1555.61 561.922 1583.18 579.359 1604.6C579.206 1605.12 579.212 1605.67 579.378 1606.19C586.708 1620.41 580.052 1635.44 565.673 1643.25C559.035 1646.67 548.708 1647.59 540.652 1652.14C517.631 1642.4 492.544 1658.93 480.052 1678.17C475.234 1687.45 473.616 1698.29 473.262 1708.47C473.245 1711.6 473.389 1714.73 473.694 1717.85C473.161 1717.14 472.454 1716.58 471.641 1716.23C470.828 1715.88 469.938 1715.74 469.057 1715.83C460.8 1716.89 455.379 1728.88 452.084 1732.58C447.697 1738.04 440.407 1740.2 433.74 1741.23C441.929 1721.41 445.14 1697.36 445.594 1682.72C445.536 1677.95 446.743 1672.53 446.053 1668.08C446.354 1667.95 446.621 1667.74 446.838 1667.5C447.054 1667.25 447.214 1666.95 447.307 1666.64C447.748 1663.61 454.692 1659.23 457.652 1654.1C461.235 1647.86 462.259 1640.53 462.172 1633.37C462.946 1618.57 456.891 1604.49 447.684 1592.83C438.946 1580.53 423.129 1574.68 412.084 1568.77C396.87 1560.21 384.502 1550.18 378.743 1534.35C376.202 1527.12 375.241 1519.43 375.925 1511.8C377.552 1501.76 376.88 1485.7 362.597 1488.26C342.539 1499.8 343.28 1547.82 348.455 1567.96C355.825 1598.56 368.502 1634.03 363.6 1662.56C361.8 1671.49 357.9 1677.9 351.541 1677.98C351.062 1677.82 350.741 1677.99 350.266 1677.83C343.722 1662.8 335.281 1648.75 326.524 1634.86C325.873 1633.6 325.068 1632.81 324.416 1631.55C327.657 1626.84 330.269 1621.73 332.184 1616.35C334.745 1609.48 336.578 1602.37 337.652 1595.13C339.386 1593.83 338.389 1590.35 338.207 1588.44C337.296 1578.91 332.419 1570.22 328.654 1561.36C322.445 1547.76 322.099 1532.33 316.196 1517.77C308.368 1501.8 292.781 1488.63 274.79 1487.1C273.358 1486.94 271.908 1487.01 270.499 1487.31C268.694 1475.54 267.911 1463.63 268.158 1451.71C276.712 1448.91 284.433 1442.93 287.507 1434.14C289.276 1430.24 290.096 1425.98 289.9 1421.7C299.728 1419.04 310.333 1414.77 314.508 1405.02C315.428 1402.15 316.347 1399.27 316.951 1396.56C319.361 1401.27 322.411 1405.62 326.014 1409.49C339.034 1420.79 352.014 1402.5 357.932 1392.25C366.351 1378.31 384.667 1367.27 390.173 1349.23C396.321 1331.66 394.308 1309.9 381.096 1295.9C372.234 1286.47 360.068 1279.93 347.307 1276.91C337.636 1275.44 327.746 1276.66 318.722 1280.44L318.406 1280.6C311.004 1275.9 302.556 1273.11 293.814 1272.47C281.073 1271.03 269.214 1276.74 257.014 1280.23C253.575 1281.01 250.03 1281.21 246.524 1280.83L246.045 1280.68C245.65 1280.48 245.199 1280.43 244.771 1280.54C239.549 1269.62 234.327 1258.71 229.738 1247.48C225.809 1238.3 221.717 1228.81 217.943 1219.15C223.482 1219.9 229.117 1219.46 234.467 1217.84C243.184 1215.35 249.918 1206.68 249.167 1197.46C248.62 1191.74 245.689 1186.05 245.957 1181.91C245.757 1178.41 248.744 1175.68 251.387 1170.71C255.42 1162.23 251.165 1152.42 246.461 1144.85C238.518 1132.54 222.539 1126.37 207.94 1129.09C202.7 1129.79 199.031 1128.88 194.404 1127.67C203.523 1118.97 206.204 1103.98 213.09 1094.84C214.65 1092.86 216.384 1091.03 218.272 1089.36C218.149 1089.8 218.162 1090.26 218.31 1090.68C218.457 1091.11 218.732 1091.48 219.097 1091.74C219.147 1092.47 219.374 1093.18 219.758 1093.8C223.507 1107.93 230.168 1121.12 239.313 1132.53C246.269 1142.15 256.223 1149.82 268.475 1150.31C275.008 1151.34 281.015 1148.24 286.226 1145.16C292.069 1141.75 298.075 1138.65 304.081 1135.56C311.69 1131.73 320.267 1130.25 328.72 1131.31C337.174 1132.36 345.121 1135.91 351.549 1141.51C355.88 1144.48 359.291 1150.32 363.956 1154.71C364.236 1155.18 364.668 1155.54 365.18 1155.73C365.692 1155.92 366.255 1155.93 366.773 1155.76C367.291 1155.59 367.734 1155.24 368.029 1154.78C368.323 1154.32 368.451 1153.77 368.391 1153.23C368.056 1151.8 366.609 1150.55 365.958 1149.28C357.699 1137.14 351.624 1121.47 342.397 1108.22C330.422 1091.19 317.325 1073.53 299.534 1062.3C287.684 1055.6 273.659 1053.23 260.142 1053.39C253.42 1053.5 246.814 1055.16 240.837 1058.24C234.861 1061.32 229.676 1065.73 225.686 1071.14C223.103 1074.95 221.065 1079.1 219.632 1083.47C219.061 1083.7 218.568 1084.09 218.214 1084.6C206.701 1092.53 204.307 1104.96 198.397 1116.01C195.284 1121.61 192.938 1124.82 188.359 1127.58L187.094 1128.23C179.438 1100.18 173.045 1071.47 175.094 1043.61C175.187 1042.16 175.382 1040.73 175.678 1039.31C177.9 1038.96 180.285 1038.93 182.345 1038.27C190.431 1036.11 195.114 1028.89 197.403 1020.91C201.09 1010.21 201.415 997.644 194.459 988.026C193.328 986.609 191.546 983.926 189.783 982.835C189.99 982.274 190.091 981.68 190.083 981.082C195.688 984.195 201.225 981.742 205.794 978.188L205.956 978.503C208.045 980.228 211.216 979.394 213.611 980.16C215.843 980.61 222.06 981.807 223.986 983.215C230.069 986.481 232.666 990.743 236.709 996.261C240.272 1000.8 244.981 1004.32 250.351 1006.43C262.192 1012.33 276.504 1012.16 282.828 1022.1C287.848 1029.52 291.173 1041.4 297.793 1049.6C301.354 1054.06 305.346 1058.17 309.712 1061.86C311.963 1063.9 314.693 1066.09 317.721 1066.53C325.521 1066.91 321.13 1059.17 319.808 1055.05C317.846 1049.27 316.755 1043.23 316.569 1037.12C316.127 1026.95 321.903 1017.97 321.604 1006.52C322.131 997.449 319.323 988.895 314.935 981.155C309.585 970.601 301.85 961.438 292.344 954.391C285.491 949.402 277.637 945.961 269.324 944.304C261.011 942.648 252.437 942.816 244.195 944.797C236.274 947.279 229.654 952.289 223.188 956.821C213.571 963.777 204.021 976.299 195.764 977.353C192.746 977.707 192.737 976.913 190.016 975.514C192.093 963.242 193.539 951.296 195.616 939.025C197.1 930.259 201.583 919.549 207.516 910.093C207.995 910.247 208.316 910.084 208.943 909.758C214.943 905.868 223.255 909.584 232.509 912.016C249.082 914.678 266.421 914.945 266.161 893.476C266.084 887.116 265.508 879.011 266.724 874.384C268.697 866.568 271.292 857.629 267.224 849.727C273.843 844.717 280.625 840.022 287.57 835.643C299.364 828.485 311.872 822.577 324.891 818.013C329.691 820.34 334.5 823.462 339.759 824.353C349.959 826.297 363.306 825.021 371.909 826.19C382.274 828.45 389.181 834.09 399.097 838.583C409.481 842.433 421.063 840.066 431.878 840.094C435.378 839.894 443.02 840.754 439.771 835.226C420.571 812.716 399.303 790.071 371.492 778.799C351.518 771.089 318.469 773.717 312.407 798.442C312.494 805.599 315.416 810.493 316.441 816.365C312.993 817.664 309.614 819.139 306.316 820.783C291.639 827.683 277.764 836.173 264.94 846.1C260.887 839.788 254.621 834.615 248.528 830.554C241.793 826.023 235.221 821.808 227.395 819.041C212.057 813.341 194.995 822.933 182.975 828.328C178.185 830.669 172.921 831.875 167.59 831.854C163.298 832.066 158.518 831.328 155.051 833.915C149.064 838.601 150.444 847.49 153.539 853.496C155.656 857.606 160.139 860.096 164.297 861.954C170.85 864.578 181.972 863.648 186.752 864.385C192.807 865.266 196.811 867.603 199.724 871.703C200.938 873.587 201.521 875.807 201.391 878.044C201.123 882.183 199.898 886.015 199.945 889.99C199.372 895.09 201.499 899.99 204.411 904.09C204.67 904.646 205.058 905.132 205.542 905.508C198.827 915.768 193.713 926.808 191.635 939.076C189.26 953.1 187.835 966.637 185.135 980.03C184.505 979.595 183.8 979.28 183.056 979.1C166.905 971.822 145.186 951.409 124.811 963.108C115.002 967.363 107.818 978.265 100.883 983.438C87.3191 992.828 72.5661 996.028 57.5251 988.576C45.3781 983.634 42.1411 992.104 48.4641 1002.05C53.4851 1009.46 60.5551 1015.42 68.2481 1020.26C74.3411 1024.32 80.9032 1027.74 88.5382 1027.8C100.138 1027.03 112.638 1021.78 121.885 1023.42C130.65 1024.91 138.812 1029.1 147.119 1032.02C154.466 1034.64 162.762 1036.76 170.876 1036.98C170.581 1038.4 170.386 1039.84 170.293 1041.28C169.193 1055.45 170.477 1069.59 172.557 1083.72C174.943 1096.89 177.809 1110.22 181.307 1123.22C176.991 1121.38 172.247 1120.78 167.607 1121.48C158.717 1122.86 151.466 1128.19 143.237 1131.64C135.637 1134.75 123.886 1136 118.723 1129.86C113.08 1123.57 108.998 1114.87 100.376 1112.12C93.6761 1110.77 94.5811 1119.5 94.7921 1123.79C95.0421 1131.27 98.6251 1138.22 102.362 1144.69C108.392 1155.31 116.773 1164.4 126.862 1171.28C139.21 1179.71 150.869 1183.71 163.362 1190.88C173.306 1197.75 183.107 1205.9 194.612 1210.38C200.313 1212.86 206.251 1214.76 212.335 1216.05C215.287 1223.33 218.4 1230.92 221.351 1238.2C231.987 1262.72 243.878 1285.8 252.444 1310.19C237.144 1307.67 221.856 1305.95 207.444 1298.17C199.444 1294.29 189.044 1288.85 180.534 1282.44C170.58 1274.76 150.643 1257.04 144.207 1277.15C141.794 1287.99 146.068 1299.39 152.219 1308.23C160.784 1319.41 171.888 1330.09 177.119 1341.8C187.343 1371.74 194.129 1406.64 219.383 1430.03C229.356 1439.3 240.297 1449.66 254.465 1450.76C257.405 1450.86 260.344 1450.55 263.202 1449.86C263.059 1451.13 263.231 1452.25 263.088 1453.52C263.218 1463.9 264.141 1474.26 265.849 1484.5C242.341 1487.01 220.249 1501.59 205.357 1519.27C188.356 1541.72 174.726 1566.53 164.9 1592.92C161.835 1602.5 155.753 1612.43 158.9 1622.42C161.707 1630.97 171.163 1636.9 180.235 1637.43C187.075 1637.51 193.397 1634.25 199.892 1632.1C202.374 1631.16 204.915 1630.39 207.498 1629.78C206.441 1637.31 203.519 1644.45 198.998 1650.56C192.275 1660.03 181.898 1670.17 176.163 1682.33C170.37 1678.87 163.889 1676.72 157.177 1676.03C150.464 1675.35 143.683 1676.14 137.308 1678.35C120.678 1684.12 109.408 1698.73 96.8181 1710.01C89.1181 1717.58 83.6091 1722.42 72.8181 1723.98C63.1331 1725.37 47.0481 1723.66 35.8021 1727.45C24.2301 1730.61 16.2321 1739.94 11.5871 1750.33C-1.30486 1775.78 0.0101307 1805.5 0.348131 1833.33C1.46213 1859.56 1.14813 1886.12 5.27913 1912C7.30113 1921.36 8.23213 1932.48 12.1501 1940.86C19.7441 1950.94 25.2501 1932.9 27.2811 1929.86ZM640.051 1285.28C644.602 1293.34 648.042 1301.57 651.961 1309.95C655.707 1317.22 659.607 1324.01 662.721 1331.61C663.776 1333.75 664.654 1335.97 665.346 1338.26C656.763 1338.68 647.222 1338.8 640.362 1337.13C634.462 1335.77 628.541 1332.82 622.343 1333.21C622.085 1333.3 621.804 1333.31 621.543 1333.22C626.6 1317.42 633.567 1301.43 640.051 1285.28ZM592.475 1453.81C593.514 1453.2 594.294 1452.23 594.668 1451.08C611.168 1434.18 633.368 1442.34 657.339 1451.59C672.36 1457.46 688.444 1459.17 702.996 1465.67C714.981 1470.3 728.767 1479.2 736.977 1487.37C738.749 1489.06 740.368 1490.9 741.815 1492.88C728.715 1500.83 718.515 1512.88 714.248 1527.88C705.016 1553.44 705.373 1582.86 699.465 1607.11C694.427 1624.51 686.506 1640.19 674.418 1653.22C665.172 1638.38 650.554 1639.51 635.026 1644.31C627.257 1646.31 621.385 1647.34 617.514 1642.93C614.614 1639.63 612.814 1635.36 610.53 1630.93C611.651 1631.56 613.087 1632.02 614.208 1632.63C622.189 1634.92 630.925 1634.02 638.857 1632.33C656.444 1626.87 663.991 1606.58 666.337 1590.17C666.714 1585.5 665.947 1580.82 664.103 1576.52C667.207 1576.04 670.206 1575.03 672.974 1573.55C678.817 1570.14 683.204 1564.68 687.274 1559.38C696.967 1545.58 699.14 1528.06 695.125 1511.73C686.596 1477.32 658.153 1466.37 625.381 1465.66C614.24 1465 602.255 1460.37 590.587 1455.58C592.005 1454.45 592.159 1453.98 592.475 1453.81ZM552.92 1654.21C561.005 1652.05 569.252 1650.2 575.546 1644.55C582.428 1638.52 586.806 1630.12 587.825 1621.03C587.978 1618.46 587.732 1615.89 587.096 1613.4C587.896 1614.19 588.705 1614.97 589.673 1616.07C586.312 1627.41 585.345 1639.51 584.695 1651.44C584.456 1657.97 584.85 1664.16 587.628 1670.33C587.791 1670.65 587.475 1670.81 587.638 1671.13C593.511 1683.31 606.052 1694.45 612.212 1704.07C619.217 1717.67 613.537 1734.6 604.763 1745.52C595.204 1757.24 583.23 1766.62 571.745 1776.93L571.257 1775.98C569.294 1772.33 566.666 1769.07 563.506 1766.38C551.606 1755.7 535.206 1754.15 523.806 1745.23C518.671 1741.47 516.361 1734.66 519.331 1730.33C519.647 1730.16 519.8 1729.69 520.116 1729.53C521.85 1728.23 523.747 1727.26 525.481 1725.96C539.217 1717.69 554.035 1706.85 556.697 1690.28C557.631 1682.01 557.369 1673.66 555.919 1665.48C555.125 1661.67 554.124 1657.91 552.92 1654.21ZM258.144 1753.7C259.538 1753.24 260.971 1752.9 262.426 1752.69C267.034 1752.32 269.426 1753.09 274.056 1754.3C285.715 1758.3 298.217 1766.26 311.156 1771.19C310.84 1771.35 310.84 1771.35 310.687 1771.83C307.316 1782.37 299.605 1789.14 287.87 1791.99C278.348 1793.69 271.27 1800.14 266.116 1808C264.74 1809.89 263.488 1811.87 262.371 1813.93C263.444 1810.57 264.832 1807.06 265.905 1803.7C268.386 1794.36 268.81 1784.59 267.148 1775.06C265.79 1767.76 262.36 1760.32 258.144 1753.7ZM204.633 1656.06C209.795 1649 212.085 1641.02 213.252 1632.42C216.107 1631.74 219.125 1631.39 221.663 1630.88C236.435 1629.27 248.726 1632.94 259.973 1642.35C268.49 1649.56 278.425 1655.65 289.719 1655.82C303.542 1654.7 315.057 1646.77 323.198 1636.17C334.063 1653.37 344.449 1670.43 351.846 1690.22C355.946 1700.5 358.611 1710.33 361.438 1720.48C358.867 1721.86 355.922 1722.4 353.027 1722.01C347.615 1721.6 339.616 1717.72 333.072 1715.89C312.485 1710.1 290.73 1712.91 270.772 1719.19C260.953 1722.65 250.541 1729.62 242.762 1730.82C241.859 1730.82 240.956 1730.88 240.062 1731.02C223.977 1729.3 207.682 1723.3 198.446 1709.26C194.077 1703.1 190.81 1695.99 185.023 1690.97C183.739 1690.03 182.455 1689.09 181.009 1687.84C186.912 1676.79 196.348 1667.93 204.633 1656.06V1656.06Z" fill="url(#paint0_linear_105_92)"/>
<path fill-rule="evenodd" clip-rule="evenodd" d="M323.042 2078.12C326.588 2103.22 338.386 2129.01 354.555 2153.95C375.344 2186 402.655 2216.94 423.855 2243.29C442.499 2266.96 462.215 2289.46 482.674 2311.17C503.216 2332.94 524.747 2353.64 547.187 2373.54C577.013 2400.14 608.568 2424.74 641.644 2447.17C719.603 2499.78 809.358 2541.7 915.284 2569.15C917.924 2569.75 920.657 2569.82 923.326 2569.37C925.995 2568.91 928.549 2567.94 930.84 2566.5C933.132 2565.05 935.118 2563.17 936.684 2560.97C938.25 2558.76 939.365 2556.26 939.966 2553.62C940.567 2550.98 940.643 2548.25 940.188 2545.58C939.733 2542.91 938.757 2540.36 937.315 2538.06C935.874 2535.77 933.995 2533.79 931.786 2532.22C929.577 2530.66 927.081 2529.54 924.441 2528.94C821.241 2508.32 731.977 2474.03 655.009 2426.54C621.907 2406.23 590.608 2383.12 561.458 2357.46C539.636 2338.11 519.054 2317.41 499.833 2295.47C480.694 2273.5 462.686 2250.58 445.881 2226.78C427.155 2199.9 402.488 2168.38 384.751 2135.93C373.451 2115.22 365.283 2094.19 364.127 2074.11C363.571 2068.68 360.887 2063.69 356.664 2060.24C352.44 2056.78 347.02 2055.14 341.589 2055.67C336.158 2056.2 331.158 2058.86 327.683 2063.07C324.208 2067.27 322.54 2072.69 323.045 2078.12L323.042 2078.12ZM932.34 106.037C949.417 92.5818 968.64 82.1368 988.932 73.7978C1020.69 60.7298 1054.93 52.5468 1087.68 45.8068C1163.58 30.3718 1242.36 26.8408 1318.59 38.4068C1394.9 49.9888 1468.4 76.5698 1533.82 120.251C1588.43 157.251 1636.86 202.623 1685.78 246.989C1719.02 277.241 1752.52 307.047 1788.65 333.264C1827.51 361.564 1869.33 385.798 1916.77 402.239C1955.95 415.933 1995.47 422.31 2035.15 425.354C2125.4 432.276 2216.56 420.924 2306.56 440.303C2343.77 448.371 2377.75 462.477 2409.68 480.272C2458.85 507.66 2503.15 543.872 2546.95 580.958C2549.04 582.695 2551.45 584.003 2554.05 584.806C2556.64 585.609 2559.37 585.892 2562.08 585.637C2564.78 585.383 2567.41 584.596 2569.81 583.323C2572.21 582.05 2574.33 580.316 2576.06 578.219C2577.79 576.122 2579.09 573.705 2579.88 571.106C2580.67 568.507 2580.94 565.777 2580.67 563.073C2580.4 560.37 2579.6 557.746 2578.32 555.352C2577.04 552.957 2575.29 550.841 2573.19 549.123C2526.41 511.686 2479.06 475.388 2427 448.189C2391.53 429.689 2354.08 415.289 2313.16 407.535C2221.26 389.98 2128.86 403.468 2036.96 398.411C1999.42 396.349 1961.97 391.061 1924.68 378.868C1879.31 363.895 1839.13 341.481 1801.76 314.975C1766.04 289.648 1732.88 260.75 1700.21 231.075C1650.55 185.991 1602.04 139.199 1546.85 101.16C1479.29 53.9888 1402.73 24.9178 1323.12 10.7778C1243.68 -3.33717 1161.1 -2.4552 1081.24 11.3388C1046.02 17.3278 1009.22 24.9588 974.823 37.7208C950.735 46.6468 927.883 58.1878 907.342 73.2268C902.991 76.542 900.136 81.4498 899.404 86.8704C898.671 92.2911 900.122 97.7805 903.438 102.131C906.753 106.482 911.661 109.338 917.081 110.07C922.502 110.802 927.991 109.351 932.342 106.036L932.34 106.037Z" fill="#F5F2FD"/>
<path fill-rule="evenodd" clip-rule="evenodd" d="M1702.33 770.017C1702.32 734.557 1688.23 700.552 1663.17 675.473C1638.1 650.394 1604.1 636.294 1568.64 636.27H582.2C546.74 636.294 512.74 650.394 487.67 675.473C462.6 700.552 448.512 734.557 448.5 770.017V2163.47C448.512 2198.93 462.6 2232.93 487.669 2258.01C512.739 2283.09 546.739 2297.2 582.2 2297.22H1568.64C1604.1 2297.2 1638.1 2283.09 1663.17 2258.01C1688.24 2232.93 1702.33 2198.93 1702.34 2163.47L1702.33 770.017Z" fill="white"/>
<path d="M812.259 1466.73C937.808 1466.73 1039.59 1364.96 1039.59 1239.41C1039.59 1113.86 937.808 1012.08 812.259 1012.08C686.71 1012.08 584.933 1113.86 584.933 1239.41C584.933 1364.96 686.71 1466.73 812.259 1466.73Z" fill="#E3E3FE"/>
<mask id="mask0_105_92" style="mask-type:luminance" maskUnits="userSpaceOnUse" x="584" y="1012" width="456" height="455">
<path d="M812.259 1466.73C937.808 1466.73 1039.59 1364.96 1039.59 1239.41C1039.59 1113.86 937.808 1012.08 812.259 1012.08C686.71 1012.08 584.933 1113.86 584.933 1239.41C584.933 1364.96 686.71 1466.73 812.259 1466.73Z" fill="white"/>
</mask>
<g mask="url(#mask0_105_92)">
<path fill-rule="evenodd" clip-rule="evenodd" d="M586.764 1352.17C698.216 1175.06 749.694 1165.46 812.226 1235.87C874.84 1306.29 893.979 1326.99 965.503 1294.5C1036.95 1262.01 1070.27 1297.22 1092.3 1345.76C1114.33 1394.3 819.903 1527.15 765.453 1526.08C711.003 1525 475.229 1529.28 586.764 1352.17Z" fill="url(#paint1_linear_105_92)"/>
</g>
<path d="M940.267 1195C984.382 1195 1020.14 1159.24 1020.14 1115.13C1020.14 1071.01 984.382 1035.25 940.267 1035.25C896.152 1035.25 860.39 1071.01 860.39 1115.13C860.39 1159.24 896.152 1195 940.267 1195Z" fill="url(#paint2_linear_105_92)"/>
<path fill-rule="evenodd" clip-rule="evenodd" d="M1030.54 1646.85C1030.55 1644.21 1030.03 1641.6 1029.03 1639.16C1028.02 1636.73 1026.54 1634.51 1024.68 1632.65C1022.81 1630.79 1020.6 1629.31 1018.16 1628.31C1015.72 1627.31 1013.11 1626.8 1010.47 1626.81H650.166C647.536 1626.81 644.933 1627.33 642.504 1628.33C640.075 1629.34 637.868 1630.82 636.011 1632.68C634.154 1634.54 632.683 1636.75 631.682 1639.18C630.682 1641.61 630.171 1644.22 630.18 1646.85V1646.86C630.171 1649.49 630.681 1652.1 631.681 1654.53C632.682 1656.96 634.153 1659.17 636.01 1661.03C637.867 1662.89 640.074 1664.37 642.503 1665.37C644.932 1666.38 647.536 1666.9 650.166 1666.89H1010.47C1013.11 1666.91 1015.72 1666.4 1018.16 1665.4C1020.6 1664.4 1022.81 1662.92 1024.68 1661.06C1026.55 1659.2 1028.02 1656.98 1029.03 1654.55C1030.03 1652.11 1030.55 1649.5 1030.54 1646.86V1646.85Z" fill="#E3E3FE"/>
<path fill-rule="evenodd" clip-rule="evenodd" d="M1642.85 1277.06C1642.84 1261.04 1636.47 1245.69 1625.14 1234.37C1613.82 1223.06 1598.46 1216.7 1582.44 1216.7H1165.57C1157.64 1216.7 1149.8 1218.26 1142.48 1221.3C1135.16 1224.33 1128.51 1228.78 1122.91 1234.38C1117.31 1239.99 1112.87 1246.64 1109.84 1253.96C1106.82 1261.29 1105.26 1269.13 1105.27 1277.06V1277.07C1105.26 1285 1106.82 1292.84 1109.84 1300.16C1112.87 1307.48 1117.31 1314.14 1122.91 1319.74C1128.51 1325.34 1135.16 1329.79 1142.48 1332.82C1149.8 1335.85 1157.65 1337.41 1165.57 1337.41H1582.44C1598.46 1337.42 1613.81 1331.07 1625.14 1319.75C1636.47 1308.44 1642.84 1293.08 1642.85 1277.07V1277.06Z" fill="#EFEFFE"/>
<path fill-rule="evenodd" clip-rule="evenodd" d="M1005.49 1926.39C1005.49 1921.08 1003.38 1915.99 999.633 1912.23C995.883 1908.47 990.796 1906.36 985.489 1906.35H639.006C633.698 1906.36 628.612 1908.47 624.862 1912.23C621.112 1915.99 619.006 1921.08 619.006 1926.39V1926.4C619.006 1931.71 621.112 1936.8 624.862 1940.55C628.612 1944.31 633.699 1946.42 639.006 1946.43H985.494C990.801 1946.42 995.888 1944.31 999.638 1940.55C1003.39 1936.8 1005.49 1931.71 1005.49 1926.4L1005.49 1926.39ZM1478.8 1924.12C1478.8 1918.82 1476.7 1913.73 1472.95 1909.97C1469.2 1906.21 1464.11 1904.1 1458.8 1904.09H1112.32C1107.01 1904.1 1101.93 1906.21 1098.18 1909.97C1094.43 1913.73 1092.32 1918.82 1092.32 1924.12V1924.14C1092.32 1929.45 1094.43 1934.54 1098.18 1938.29C1101.93 1942.05 1107.01 1944.16 1112.32 1944.17H1458.81C1464.12 1944.16 1469.2 1942.05 1472.95 1938.29C1476.7 1934.54 1478.81 1929.45 1478.81 1924.14L1478.8 1924.12ZM1478.79 1721.19C1478.8 1718.56 1478.29 1715.96 1477.29 1713.53C1476.29 1711.1 1474.82 1708.89 1472.96 1707.03C1469.17 1703.27 1464.06 1701.16 1458.72 1701.16H650.257C644.924 1701.16 639.807 1703.27 636.023 1707.03C634.164 1708.89 632.691 1711.1 631.69 1713.53C630.689 1715.96 630.179 1718.56 630.19 1721.19V1721.21C630.179 1723.84 630.689 1726.44 631.69 1728.87C632.692 1731.3 634.164 1733.51 636.023 1735.37C639.808 1739.13 644.924 1741.24 650.257 1741.24H1458.72C1464.06 1741.24 1469.17 1739.13 1472.96 1735.37C1474.82 1733.51 1476.29 1731.3 1477.29 1728.87C1478.29 1726.44 1478.8 1723.84 1478.79 1721.21V1721.19ZM1005.49 2000.73C1005.49 1995.42 1003.38 1990.33 999.633 1986.58C995.883 1982.82 990.796 1980.71 985.489 1980.7H639.006C633.699 1980.71 628.612 1982.82 624.862 1986.58C621.113 1990.33 619.006 1995.42 619.006 2000.73V2000.75C619.006 2006.05 621.112 2011.14 624.862 2014.9C628.612 2018.65 633.699 2020.77 639.006 2020.78H985.494C990.801 2020.77 995.888 2018.65 999.638 2014.9C1003.39 2011.14 1005.49 2006.05 1005.49 2000.75L1005.49 2000.73ZM1478.8 1998.47C1478.8 1993.16 1476.7 1988.07 1472.95 1984.32C1469.2 1980.56 1464.11 1978.44 1458.8 1978.44H1112.32C1107.01 1978.44 1101.93 1980.56 1098.18 1984.32C1094.43 1988.07 1092.32 1993.16 1092.32 1998.47V1998.49C1092.32 2003.79 1094.43 2008.88 1098.18 2012.64C1101.93 2016.39 1107.02 2018.51 1112.32 2018.51H1458.81C1464.12 2018.51 1469.2 2016.39 1472.95 2012.64C1476.7 2008.88 1478.81 2003.79 1478.81 1998.49L1478.8 1998.47ZM1478.79 1800.05C1478.8 1797.42 1478.29 1794.82 1477.29 1792.39C1476.29 1789.95 1474.82 1787.75 1472.96 1785.89C1469.17 1782.13 1464.06 1780.02 1458.72 1780.02H650.257C644.924 1780.02 639.807 1782.13 636.023 1785.89C634.163 1787.75 632.691 1789.95 631.69 1792.38C630.688 1794.82 630.179 1797.42 630.19 1800.05V1800.07C630.179 1802.69 630.689 1805.3 631.69 1807.73C632.691 1810.16 634.164 1812.37 636.023 1814.23C639.808 1817.99 644.924 1820.09 650.257 1820.1H1458.72C1464.06 1820.09 1469.17 1817.99 1472.96 1814.23C1474.82 1812.37 1476.29 1810.16 1477.29 1807.73C1478.29 1805.3 1478.8 1802.69 1478.79 1800.07V1800.05ZM1005.49 2079.59C1005.49 2074.28 1003.38 2069.19 999.633 2065.43C995.883 2061.68 990.796 2059.56 985.489 2059.55H639.006C633.698 2059.56 628.612 2061.68 624.862 2065.43C621.112 2069.19 619.006 2074.28 619.006 2079.59V2079.6C619.006 2084.91 621.112 2090 624.862 2093.76C628.612 2097.51 633.699 2099.63 639.006 2099.63H985.494C990.801 2099.63 995.888 2097.51 999.638 2093.76C1003.39 2090 1005.49 2084.91 1005.49 2079.6L1005.49 2079.59ZM1478.8 2077.33C1478.8 2072.02 1476.7 2066.93 1472.95 2063.17C1469.2 2059.42 1464.11 2057.3 1458.8 2057.29H1112.32C1107.01 2057.3 1101.93 2059.42 1098.18 2063.17C1094.43 2066.93 1092.32 2072.02 1092.32 2077.33V2077.34C1092.32 2082.65 1094.43 2087.74 1098.18 2091.5C1101.93 2095.25 1107.02 2097.36 1112.32 2097.37H1458.81C1464.12 2097.36 1469.2 2095.25 1472.95 2091.5C1476.7 2087.74 1478.81 2082.65 1478.81 2077.34L1478.8 2077.33Z" fill="#E3E3FE"/>
<path fill-rule="evenodd" clip-rule="evenodd" d="M2484.54 871.506C2563.73 871.506 2621.46 944.42 2610.2 1043.39C2602.2 1113.53 2516.59 1186.55 2431.88 1221.55C2358.72 1251.78 2358.33 1141.16 2358.33 1041.55C2358.33 941.937 2405.41 871.506 2484.54 871.506Z" fill="url(#paint3_linear_105_92)"/>
<path fill-rule="evenodd" clip-rule="evenodd" d="M2424.15 1397.9C2500.28 1574.3 1990.13 2139.47 1820.07 2124.97C1649.97 2110.39 1403.6 1310.58 1403.6 1310.58L1331.93 1216.71L1521 1240.64L1507.84 1266.31C1507.84 1266.31 1774.49 1730.5 1846.96 1765.26C1882.99 1782.56 1976.93 1498.42 2176.31 1385.44C2393.74 1262.34 2380.6 1297 2424.15 1397.9Z" fill="url(#paint4_linear_105_92)"/>
<mask id="mask1_105_92" style="mask-type:luminance" maskUnits="userSpaceOnUse" x="1331" y="1216" width="1101" height="910">
<path d="M2424.15 1397.9C2500.28 1574.3 1990.13 2139.47 1820.07 2124.97C1649.97 2110.39 1403.6 1310.58 1403.6 1310.58L1331.93 1216.71L1521 1240.64L1507.84 1266.31C1507.84 1266.31 1774.49 1730.5 1846.96 1765.26C1882.99 1782.56 1976.93 1498.42 2176.31 1385.44C2393.74 1262.34 2380.6 1297 2424.15 1397.9Z" fill="white"/>
</mask>
<g mask="url(#mask1_105_92)">
<path fill-rule="evenodd" clip-rule="evenodd" d="M1948.34 1515.72C2004.48 1507.63 2097.47 1522.78 2129.33 1574.77C2147.6 1604.56 2141.6 1640.05 2150.32 1672.65C2169.74 1745.32 2237.48 1815.16 2317.33 1812.27C2415.06 1808.83 2446.79 1678.07 2465.31 1603.77C2490.13 1503.74 2514.72 1375.44 2430.96 1295.88C2415.99 1281.64 2398.82 1270.39 2380.36 1261.32C2355.86 1249.38 2329.72 1241.19 2302.79 1237.01C2269.19 1231.62 2234.18 1231.39 2200.62 1237.41C2145.46 1247.41 2094.16 1275.48 2051.49 1311.26C1996.19 1357.8 1955.89 1415.18 1923.88 1479.52L1948.34 1515.72Z" fill="url(#paint5_linear_105_92)"/>
</g>
<path fill-rule="evenodd" clip-rule="evenodd" d="M2535.04 1271.84C2802.14 1295.34 2892.42 1301.25 2878.14 1795.1C2863.72 2298.71 2202.04 2281.03 2202.04 2281.03C2202.04 2281.03 2299.2 1966.03 2221.17 1697.43C2126.84 1373.18 2346.37 1255.24 2535.04 1271.84Z" fill="url(#paint6_linear_105_92)"/>
<path fill-rule="evenodd" clip-rule="evenodd" d="M1882.06 1152.57C1882.05 1129.22 1872.77 1106.84 1856.27 1090.33C1839.76 1073.82 1817.38 1064.54 1794.03 1064.53H1293.37C1270.02 1064.53 1247.62 1073.81 1231.11 1090.32C1214.6 1106.83 1205.32 1129.22 1205.32 1152.57C1205.32 1175.92 1214.6 1198.32 1231.11 1214.83C1247.62 1231.34 1270.02 1240.61 1293.37 1240.61H1794.03C1817.38 1240.6 1839.76 1231.32 1856.27 1214.81C1872.78 1198.3 1882.05 1175.91 1882.06 1152.57Z" fill="#ABDBFF"/>
<path d="M1336.07 1114.16V1127.14C1332.95 1126.54 1329.77 1126.21 1326.59 1126.18C1318.17 1126.18 1311.99 1127.97 1308.03 1131.56C1304.07 1135.16 1301.76 1141.21 1301.26 1149.75H1301.92C1305.3 1143.89 1310.99 1140.95 1319 1140.95C1325.84 1140.95 1331.29 1143.11 1335.33 1147.41C1339.37 1151.72 1341.35 1157.61 1341.35 1165.09C1341.35 1173.29 1339.04 1179.77 1334.42 1184.52C1329.8 1189.28 1323.45 1191.65 1315.45 1191.65C1310.19 1191.78 1305.02 1190.32 1300.6 1187.48C1296.25 1184.54 1292.91 1180.34 1291.03 1175.44C1288.89 1170.2 1287.81 1163.87 1287.81 1156.46C1287.81 1142.33 1290.95 1131.63 1297.38 1124.38C1303.82 1117.13 1313.31 1113.49 1325.93 1113.49C1329.32 1113.45 1332.71 1113.68 1336.07 1114.16ZM1327.16 1165.48C1327.16 1161.5 1326.17 1158.44 1324.19 1156.29C1322.13 1154.15 1319.24 1153.08 1315.45 1153.08C1312.04 1152.97 1308.71 1154.15 1306.13 1156.38C1304.96 1157.28 1304.02 1158.42 1303.36 1159.74C1302.71 1161.05 1302.35 1162.5 1302.33 1163.97C1302.19 1167.84 1303.45 1171.63 1305.88 1174.65C1306.99 1175.92 1308.34 1176.96 1309.86 1177.69C1311.38 1178.43 1313.03 1178.86 1314.71 1178.95C1316.4 1179.04 1318.08 1178.79 1319.67 1178.21C1321.25 1177.64 1322.71 1176.75 1323.95 1175.61C1326.09 1173.37 1327.16 1170 1327.16 1165.48ZM1412.8 1150.54V1150.93C1424.93 1152.44 1431.03 1158.51 1431.03 1169.15C1431.03 1176.15 1428.47 1181.65 1423.19 1185.65C1417.99 1189.65 1410.49 1191.65 1400.76 1191.65C1392.42 1191.65 1385.16 1190.28 1378.98 1187.54V1174C1385.48 1177.18 1392.61 1178.88 1399.85 1178.97C1405.37 1178.97 1409.5 1178.1 1412.22 1176.37C1413.56 1175.52 1414.65 1174.34 1415.38 1172.93C1416.11 1171.52 1416.44 1169.95 1416.35 1168.37C1416.35 1164.34 1414.78 1161.5 1411.73 1159.85C1408.67 1158.2 1403.81 1157.37 1397.04 1157.37H1390.6V1145.47H1396.7C1402.64 1145.47 1407.1 1144.7 1410.15 1143.16C1413.2 1141.62 1414.77 1138.89 1414.77 1134.98C1414.82 1133.76 1414.6 1132.54 1414.11 1131.42C1413.63 1130.3 1412.89 1129.3 1411.97 1128.5C1410.15 1126.96 1407.27 1126.18 1403.39 1126.18C1400.53 1126.19 1397.69 1126.64 1394.97 1127.51C1391.89 1128.55 1388.95 1129.98 1386.23 1131.77L1379.05 1120.89C1386.57 1116.09 1395.29 1113.53 1404.21 1113.49C1411.97 1113.49 1418.07 1115.12 1422.53 1118.38C1424.66 1119.86 1426.39 1121.85 1427.55 1124.17C1428.72 1126.49 1429.29 1129.06 1429.21 1131.66C1429.3 1136.06 1427.77 1140.35 1424.92 1143.7C1422.12 1146.98 1417.99 1149.27 1412.8 1150.54ZM1506.43 1150.43C1512.04 1153.36 1516.08 1156.49 1518.64 1159.82C1521.63 1163.75 1522.93 1168.71 1522.26 1173.61C1521.6 1178.5 1519.02 1182.93 1515.09 1185.93C1510.14 1189.75 1503.71 1191.65 1495.87 1191.65C1487.45 1191.65 1480.85 1189.85 1476.15 1186.24C1471.53 1182.63 1469.14 1177.63 1469.14 1171.23C1469.07 1167.06 1470.35 1162.97 1472.77 1159.56C1475.08 1156.22 1478.79 1153.34 1483.74 1150.93C1475.57 1145.86 1471.45 1139.51 1471.45 1131.88C1471.39 1129.25 1471.98 1126.65 1473.18 1124.31C1474.37 1121.97 1476.13 1119.97 1478.3 1118.48C1482.83 1115.15 1488.69 1113.49 1495.87 1113.48C1503.05 1113.48 1508.9 1115.13 1513.36 1118.43C1515.52 1119.95 1517.27 1121.99 1518.45 1124.36C1519.63 1126.72 1520.2 1129.35 1520.12 1131.99C1520.12 1139.89 1515.5 1146.03 1506.43 1150.43ZM1495.87 1144.23C1499.75 1142.61 1502.39 1140.93 1503.87 1139.18C1505.33 1137.5 1506.12 1135.34 1506.1 1133.12C1506.14 1131.99 1505.91 1130.88 1505.42 1129.86C1504.93 1128.85 1504.2 1127.97 1503.29 1127.31C1501.06 1125.79 1498.4 1125.03 1495.7 1125.16C1493.09 1125.06 1490.52 1125.79 1488.36 1127.25C1487.44 1127.92 1486.7 1128.81 1486.21 1129.83C1485.72 1130.85 1485.5 1131.98 1485.56 1133.12C1485.53 1135.35 1486.36 1137.51 1487.86 1139.16C1490.17 1141.36 1492.89 1143.08 1495.87 1144.23V1144.23ZM1494.96 1157.03C1487.04 1160.37 1483.08 1164.81 1483.08 1170.34C1483.02 1171.7 1483.29 1173.06 1483.86 1174.29C1484.44 1175.53 1485.3 1176.61 1486.38 1177.44C1488.53 1179.17 1491.66 1180.04 1495.62 1180.04C1499.75 1180.04 1502.88 1179.2 1505.11 1177.53C1506.2 1176.71 1507.07 1175.64 1507.64 1174.4C1508.22 1173.17 1508.48 1171.81 1508.41 1170.45C1508.35 1168.02 1507.38 1165.71 1505.69 1163.97C1503.79 1161.93 1500.74 1159.88 1496.53 1157.81L1494.96 1157.03ZM1613.59 1190.52H1560.55V1179.3L1580.26 1159.79C1587.6 1152.5 1592.22 1147.44 1594.04 1144.62C1595.8 1142.04 1596.78 1139 1596.84 1135.87C1596.91 1134.61 1596.7 1133.35 1596.23 1132.18C1595.76 1131 1595.04 1129.95 1594.12 1129.08C1592.17 1127.37 1589.62 1126.49 1587.03 1126.63C1584.02 1126.63 1581.05 1127.23 1578.28 1128.4C1574.75 1130 1571.45 1132.06 1568.46 1134.52L1560.3 1124.32C1563.31 1121.97 1566.48 1119.83 1569.79 1117.92C1572.31 1116.53 1575 1115.46 1577.79 1114.73C1580.93 1113.88 1584.18 1113.46 1587.44 1113.49C1594.62 1113.49 1600.39 1115.44 1604.76 1119.35C1606.89 1121.21 1608.59 1123.51 1609.73 1126.09C1610.87 1128.67 1611.43 1131.48 1611.36 1134.3C1611.36 1137.93 1610.63 1141.53 1609.22 1144.88C1607.6 1148.57 1605.4 1151.97 1602.7 1154.97C1598.5 1159.71 1594.03 1164.22 1589.33 1168.47L1580.43 1176.76V1177.37H1613.59L1613.59 1190.52ZM1655.66 1190.98V1177.95C1658.78 1178.66 1661.96 1179 1665.15 1178.96C1673.65 1178.96 1679.92 1177.11 1683.96 1173.41C1688 1169.71 1690.15 1163.55 1690.48 1154.94H1689.82C1687.84 1158.36 1685.53 1160.74 1682.72 1162.08C1679.51 1163.5 1676.01 1164.19 1672.49 1164.08C1665.56 1164.08 1660.12 1161.91 1656.24 1157.57C1652.28 1153.22 1650.3 1147.16 1650.3 1139.38C1650.3 1131.37 1652.61 1125.06 1657.31 1120.43C1661.93 1115.81 1668.29 1113.49 1676.12 1113.49C1684.7 1113.49 1691.47 1116.54 1696.42 1122.63C1701.45 1128.72 1703.92 1137.39 1703.92 1148.63C1703.92 1162.66 1700.71 1173.33 1694.35 1180.66C1688 1188 1678.52 1191.66 1665.89 1191.66C1662.47 1191.71 1659.05 1191.48 1655.66 1190.98ZM1664.49 1139.15C1664.49 1147.68 1668.37 1151.95 1676.04 1151.95C1679.51 1152.06 1682.89 1150.88 1685.53 1148.63C1686.69 1147.73 1687.63 1146.59 1688.29 1145.28C1688.94 1143.97 1689.3 1142.53 1689.33 1141.07C1689.41 1137.28 1688.15 1133.59 1685.78 1130.63C1684.68 1129.33 1683.33 1128.27 1681.81 1127.51C1680.29 1126.74 1678.63 1126.3 1676.93 1126.2C1675.24 1126.1 1673.53 1126.35 1671.94 1126.93C1670.34 1127.51 1668.87 1128.41 1667.63 1129.57C1665.56 1131.82 1664.49 1135.01 1664.49 1139.15ZM1768.19 1191.65C1759.44 1191.65 1752.84 1188.36 1748.39 1181.79C1743.93 1175.21 1741.71 1165.53 1741.71 1152.74C1741.71 1139.51 1743.93 1129.66 1748.31 1123.19C1752.68 1116.72 1759.36 1113.49 1768.19 1113.49C1785.84 1113.49 1794.75 1126.54 1794.75 1152.63C1794.75 1166.2 1792.52 1176.09 1788.23 1182.32C1783.86 1188.54 1777.18 1191.65 1768.19 1191.65ZM1768.19 1178.96C1772.48 1178.96 1775.53 1176.91 1777.34 1172.79C1779.24 1168.67 1780.15 1161.95 1780.15 1152.63C1780.15 1143.15 1779.24 1136.38 1777.34 1132.3C1775.53 1128.22 1772.48 1126.18 1768.19 1126.18C1766.85 1126.11 1765.51 1126.33 1764.27 1126.84C1763.03 1127.35 1761.92 1128.12 1761.01 1129.11C1759.28 1131.07 1758.04 1133.96 1757.3 1137.8C1756.53 1142.74 1756.17 1147.74 1756.23 1152.74C1756.23 1161.99 1757.22 1168.67 1759.03 1172.79C1760.93 1176.9 1763.98 1178.96 1768.19 1178.96Z" fill="#20238C"/>
<path fill-rule="evenodd" clip-rule="evenodd" d="M1480.86 1240.61C1480.03 1230.8 1501.23 1196.88 1510.06 1191.65C1518.56 1186.64 1532.91 1199.44 1533.81 1209.25C1534.64 1219.07 1523.91 1245.31 1515.09 1250.53C1506.26 1255.76 1481.68 1250.42 1480.86 1240.61Z" fill="#FB9C9A"/>
<path fill-rule="evenodd" clip-rule="evenodd" d="M2492.92 871.509C2492.92 871.509 2510.24 909.796 2497.7 939.972C2494.4 947.933 2486.65 953.749 2480.38 959.516C2464.29 974.134 2444.08 981.916 2426.68 994.337C2421.48 997.984 2410.42 1005.05 2411.09 1012.64C2411.99 1021.49 2429.4 1017.34 2434.19 1015.91C2453 1010.28 2467.85 1003.63 2477.99 1018.95C2488.3 1034.59 2480.05 1073.05 2469.41 1099.12C2467.51 1103.73 2458.94 1123.32 2468.75 1125.27C2475.11 1126.52 2480.71 1119.15 2484.18 1115.01C2494.16 1102.85 2496.8 1061.36 2506.7 1049.06C2511.32 1043.37 2518.41 1036.88 2525.01 1047.15C2545.31 1078.85 2524.85 1111.48 2502.25 1122.35C2475.02 1135.5 2471.56 1201.77 2471.56 1201.77C2471.56 1201.77 2530.62 1220.28 2548.94 1172.75C2581.36 1184.04 2642.82 1176.3 2642.41 1113.81C2700.65 1089.66 2727.38 998.256 2672.76 966.635C2680.68 962.783 2685.55 951.522 2687.7 943.726C2710.05 864.926 2617.9 776.548 2531.12 825.963C2511.97 836.852 2498.03 850.893 2492.92 871.509Z" fill="url(#paint7_linear_105_92)"/>
<path d="M1676.75 2755.41C1839.96 2755.41 1972.28 2623.1 1972.28 2459.88C1972.28 2296.66 1839.96 2164.35 1676.75 2164.35C1513.53 2164.35 1381.21 2296.66 1381.21 2459.88C1381.21 2623.1 1513.53 2755.41 1676.75 2755.41Z" fill="url(#paint8_linear_105_92)"/>
<path fill-rule="evenodd" clip-rule="evenodd" d="M1503.6 2485.68L1601.44 2607.7C1605.46 2612.71 1610.59 2616.71 1616.42 2619.39C1622.25 2622.07 1628.63 2623.35 1635.05 2623.13C1641.47 2622.91 1647.74 2621.19 1653.38 2618.12C1659.02 2615.05 1663.86 2610.7 1667.52 2605.43L1850.25 2342.12C1856.48 2333.12 1858.89 2322.02 1856.95 2311.25C1855 2300.49 1848.85 2290.93 1839.86 2284.7C1830.87 2278.46 1819.76 2276.05 1809 2278C1798.23 2279.95 1788.67 2286.09 1782.44 2295.09L1631.22 2512.99L1567.95 2434.08C1561.08 2425.61 1551.15 2420.2 1540.31 2419.04C1529.47 2417.88 1518.61 2421.05 1510.11 2427.87C1501.6 2434.69 1496.14 2444.6 1494.93 2455.43C1493.71 2466.26 1496.82 2477.14 1503.6 2485.68V2485.68Z" fill="white"/>
<path fill-rule="evenodd" clip-rule="evenodd" d="M2748.11 1328.22C2939.5 1345.02 3218.67 2019.04 3100.95 2205.17C2983.15 2391.29 2240.1 2410.52 2041.62 2444.97C1890.82 2576.7 1829.19 2412.83 1850.8 2412.62C1946.83 2411.65 1944.27 2334.64 1944.27 2334.64C1944.27 2334.64 1945.84 2326.58 1918.7 2293.81C1948.64 2272.74 2015.55 2333.57 2015.55 2333.57C2015.55 2333.57 2732.19 2057.89 2797.2 2010.63C2829.54 1987.15 2627.67 1769.41 2619.42 1540.38C2616.61 1461.88 2638.64 1318.61 2748.11 1328.22Z" fill="url(#paint9_linear_105_92)"/>
<mask id="mask2_105_92" style="mask-type:luminance" maskUnits="userSpaceOnUse" x="1846" y="1327" width="1283" height="1170">
<path d="M2748.11 1328.22C2939.5 1345.02 3218.67 2019.04 3100.95 2205.17C2983.15 2391.29 2240.1 2410.52 2041.62 2444.97C1890.82 2576.7 1829.19 2412.83 1850.8 2412.62C1946.83 2411.65 1944.27 2334.64 1944.27 2334.64C1944.27 2334.64 1945.84 2326.58 1918.7 2293.81C1948.64 2272.74 2015.55 2333.57 2015.55 2333.57C2015.55 2333.57 2732.19 2057.89 2797.2 2010.63C2829.54 1987.15 2627.67 1769.41 2619.42 1540.38C2616.61 1461.88 2638.64 1318.61 2748.11 1328.22Z" fill="white"/>
</mask>
<g mask="url(#mask2_105_92)">
<path fill-rule="evenodd" clip-rule="evenodd" d="M2625.77 1802.88C2645.32 1749.63 2702.82 1675.01 2763.71 1671.67C2798.61 1669.74 2826.98 1691.88 2859.81 1699.69C2932.99 1717.12 3026.62 1690.69 3062.01 1619.05C3105.4 1531.41 3005.42 1441.38 2948.83 1389.79C2872.6 1320.43 2771.38 1237.84 2661.58 1273.75C2641.94 1280.16 2623.88 1289.93 2607.13 1301.87C2584.99 1317.75 2565.36 1336.87 2548.89 1358.58C2528.18 1385.59 2511.35 1416.29 2500.71 1448.68C2483.3 1501.97 2483.63 1560.44 2494.85 1614.99C2509.54 1685.75 2540.89 1748.48 2582.3 1807.21L2625.77 1802.88Z" fill="url(#paint10_linear_105_92)"/>
</g>
<defs>
<linearGradient id="paint0_linear_105_92" x1="55.2897" y1="887.196" x2="815.158" y2="2186.15" gradientUnits="userSpaceOnUse">
<stop stop-color="#E3DBF9"/>
<stop offset="0.61" stop-color="#D1C1FA"/>
<stop offset="0.82" stop-color="#A685FB"/>
<stop offset="1" stop-color="#7846FD"/>
</linearGradient>
<linearGradient id="paint1_linear_105_92" x1="893.104" y1="1267.44" x2="735.397" y2="1552.23" gradientUnits="userSpaceOnUse">
<stop stop-color="#AADBFF"/>
<stop offset="1" stop-color="#0500E3"/>
</linearGradient>
<linearGradient id="paint2_linear_105_92" x1="973.221" y1="1043.74" x2="806.672" y2="1372.48" gradientUnits="userSpaceOnUse">
<stop stop-color="#AADBFF"/>
<stop offset="1" stop-color="#0500E3"/>
</linearGradient>
<linearGradient id="paint3_linear_105_92" x1="2380.81" y1="910.87" x2="2597.14" y2="1238.63" gradientUnits="userSpaceOnUse">
<stop stop-color="#FB9C9A"/>
<stop offset="0.64" stop-color="#FC8886"/>
<stop offset="0.84" stop-color="#FD5450"/>
<stop offset="1" stop-color="#FF1712"/>
</linearGradient>
<linearGradient id="paint4_linear_105_92" x1="1878.6" y1="1397.29" x2="2299.91" y2="2117.18" gradientUnits="userSpaceOnUse">
<stop stop-color="#FB9C9A"/>
<stop offset="0.63" stop-color="#FC8784"/>
<stop offset="0.83" stop-color="#FD524E"/>
<stop offset="1" stop-color="#FF1712"/>
</linearGradient>
<linearGradient id="paint5_linear_105_92" x1="2178.52" y1="1390.29" x2="2389.09" y2="1774.4" gradientUnits="userSpaceOnUse">
<stop stop-color="#20238C"/>
<stop offset="0.54" stop-color="#1A1D7F"/>
<stop offset="1" stop-color="#050751"/>
</linearGradient>
<linearGradient id="paint6_linear_105_92" x1="2247" y1="1439.61" x2="2751.2" y2="2159.87" gradientUnits="userSpaceOnUse">
<stop stop-color="#20238C"/>
<stop offset="0.51" stop-color="#191C7E"/>
<stop offset="1" stop-color="#050751"/>
</linearGradient>
<linearGradient id="paint7_linear_105_92" x1="2474.47" y1="1179.97" x2="2671.94" y2="805.464" gradientUnits="userSpaceOnUse">
<stop/>
<stop offset="1" stop-color="#4D4D4D"/>
</linearGradient>
<linearGradient id="paint8_linear_105_92" x1="1795.61" y1="2177.52" x2="1507.61" y2="2863.38" gradientUnits="userSpaceOnUse">
<stop stop-color="#AADBFF"/>
<stop offset="0.6" stop-color="#92D1FF"/>
<stop offset="0.81" stop-color="#5BB9FF"/>
<stop offset="1" stop-color="#22A1FF"/>
</linearGradient>
<linearGradient id="paint9_linear_105_92" x1="2470.87" y1="2105.53" x2="2554.33" y2="2660.37" gradientUnits="userSpaceOnUse">
<stop stop-color="#FB9C9A"/>
<stop offset="0.47" stop-color="#FC7875"/>
<stop offset="1" stop-color="#FF1712"/>
</linearGradient>
<linearGradient id="paint10_linear_105_92" x1="2847.93" y1="1322.29" x2="2680.5" y2="1864.31" gradientUnits="userSpaceOnUse">
<stop stop-color="#20238C"/>
<stop offset="0.49" stop-color="#191C7D"/>
<stop offset="1" stop-color="#050751"/>
</linearGradient>
</defs>
</svg>
