<svg width="163" height="151" viewBox="0 0 163 151" fill="none" xmlns="http://www.w3.org/2000/svg">
<path fill-rule="evenodd" clip-rule="evenodd" d="M112.843 70.9287C112.843 79.5205 109.379 87.3011 103.786 92.9287C98.1924 98.5563 90.4588 102.041 81.919 102.041C64.8392 102.041 51 88.1124 51 70.9287V24.8878C51 11.1429 62.0754 0 75.7372 0C82.5681 0 88.7498 2.78572 93.2277 7.29083C97.7055 11.7908 100.474 18.0153 100.474 24.8878C100.474 31.7602 97.8526 37.6429 93.5928 42.1123C97.4368 43.6888 100.895 46.0256 103.786 48.9337C109.379 54.5613 112.843 62.3368 112.843 70.9287ZM93.0249 73.3419C92.8372 74.0766 92.3605 74.7144 91.6962 75.097C91.4731 75.2246 91.2296 75.3215 90.971 75.3879L75.6916 79.1021L74.368 79.4236C72.8669 79.7909 71.3456 78.8522 70.9855 77.3419L70.6305 75.8675L65.3007 53.6531C65.1182 52.898 65.2297 52.1837 65.6354 51.5205L71.9288 41.1531C72.7351 39.8266 74.4694 39.4031 75.7879 40.2194L78.5517 41.9184L80.5447 43.1429C80.1339 44.6378 79.2515 46.0103 78.0497 46.9949C77.8417 47.1684 77.6288 47.3215 77.4107 47.4694C76.8022 47.2551 76.1327 47.2092 75.4634 47.3725C74.6773 47.5613 74.0231 48.0103 73.5617 48.6021C72.9278 49.4082 72.659 50.4899 72.9227 51.5613C73.369 53.4235 75.2301 54.5715 77.0861 54.1225C78.6785 53.7348 79.7434 52.2909 79.7231 50.7042C79.7231 50.5511 79.7079 50.3929 79.6876 50.2348C79.8956 50.0868 80.0984 49.9337 80.2962 49.7705C81.8023 48.5358 82.9738 46.8929 83.6584 45.0613L86.0925 46.5562C86.7518 46.9643 87.1778 47.5511 87.3553 48.3062L88.4456 52.847L93.0401 71.9899C93.1516 72.4542 93.1415 72.9185 93.0299 73.3521L93.0249 73.3419ZM76.7363 50.6633C77.8012 50.2858 78.8002 49.7246 79.6776 49.0052L79.6826 49.0103C82.5833 46.6327 83.9728 42.7603 83.1614 39.0715C82.9687 38.2092 82.6746 37.4031 82.2892 36.6684C80.3216 32.9235 76.0364 30.9388 71.7259 32.0613C67.5118 33.1633 64.6111 36.9031 64.4336 41.2603C64.3626 42.9133 64.6973 44.5715 65.4174 46.0613C65.6152 46.4644 66.0969 46.6327 66.4976 46.4389C66.8982 46.2399 67.0655 45.7552 66.8728 45.3521C66.2694 44.1021 65.9854 42.7092 66.0412 41.3215C66.1882 37.6837 68.6122 34.546 72.1316 33.6276C76.148 32.5715 80.134 34.7807 81.3815 38.6735C81.4626 38.9184 81.5285 39.1633 81.5843 39.4184C82.2588 42.495 81.0823 45.7603 78.6582 47.745C77.928 48.347 77.0913 48.8215 76.1987 49.1378C75.7778 49.2858 75.5598 49.745 75.7068 50.1684C75.8539 50.5919 76.3204 50.8113 76.7363 50.6633Z" fill="white"/>
<path d="M0 150.459V118.902H12.8018C16.1123 118.902 18.6332 119.668 20.3644 121.201C22.1259 122.704 23.0067 124.642 23.0067 127.016C23.0067 129 22.46 130.593 21.3666 131.795C20.3036 132.967 18.9976 133.764 17.4487 134.184C19.271 134.545 20.7744 135.447 21.9589 136.889C23.1434 138.302 23.7357 139.955 23.7357 141.848C23.7357 144.343 22.8245 146.402 21.0022 148.025C19.1799 149.648 16.5983 150.459 13.2573 150.459H0ZM5.83141 132.156H11.9362C13.5762 132.156 14.8367 131.78 15.7175 131.029C16.5983 130.277 17.0386 129.21 17.0386 127.828C17.0386 126.505 16.5983 125.469 15.7175 124.717C14.8671 123.936 13.5762 123.545 11.845 123.545H5.83141V132.156ZM5.83141 145.77H12.3462C14.0774 145.77 15.4137 145.38 16.3553 144.598C17.3272 143.787 17.8131 142.66 17.8131 141.217C17.8131 139.745 17.312 138.587 16.3097 137.746C15.3074 136.904 13.9559 136.484 12.2551 136.484H5.83141V145.77Z" fill="white"/>
<path d="M39.5834 151C37.3055 151 35.2858 150.519 33.5242 149.557C31.7626 148.596 30.3807 147.243 29.3784 145.5C28.3761 143.757 27.875 141.743 27.875 139.459C27.875 137.145 28.361 135.086 29.3329 133.283C30.3351 131.48 31.7019 130.082 33.4331 129.09C35.1946 128.068 37.2599 127.557 39.6289 127.557C41.8461 127.557 43.8051 128.038 45.5059 129C47.2067 129.962 48.5279 131.284 49.4694 132.967C50.4413 134.62 50.9273 136.469 50.9273 138.512C50.9273 138.843 50.9121 139.189 50.8817 139.549C50.8817 139.91 50.8665 140.286 50.8362 140.676H33.6609C33.7823 142.419 34.3898 143.787 35.4832 144.779C36.6069 145.77 37.9585 146.266 39.5378 146.266C40.7223 146.266 41.7094 146.011 42.4991 145.5C43.3191 144.959 43.9266 144.268 44.3214 143.426H50.2439C49.8187 144.839 49.105 146.131 48.1027 147.303C47.1308 148.445 45.9159 149.347 44.4581 150.008C43.0306 150.669 41.4057 151 39.5834 151ZM39.6289 132.246C38.2015 132.246 36.941 132.652 35.8476 133.463C34.7542 134.245 34.0557 135.447 33.752 137.07H45.0048C44.9137 135.597 44.367 134.425 43.3647 133.553C42.3624 132.682 41.1172 132.246 39.6289 132.246Z" fill="white"/>
<path d="M66.9024 151C64.5942 151 62.5593 150.504 60.7977 149.512C59.0361 148.52 57.639 147.138 56.6064 145.365C55.6041 143.592 55.103 141.563 55.103 139.279C55.103 136.995 55.6041 134.966 56.6064 133.193C57.639 131.419 59.0361 130.037 60.7977 129.045C62.5593 128.053 64.5942 127.557 66.9024 127.557C69.7878 127.557 72.2175 128.309 74.1917 129.811C76.1659 131.284 77.4263 133.328 77.973 135.943H71.8227C71.519 134.861 70.9115 134.019 70.0004 133.418C69.1196 132.787 68.0718 132.471 66.8569 132.471C65.2472 132.471 63.8804 133.072 62.7567 134.275C61.6329 135.477 61.071 137.145 61.071 139.279C61.071 141.413 61.6329 143.081 62.7567 144.283C63.8804 145.485 65.2472 146.086 66.8569 146.086C68.0718 146.086 69.1196 145.786 70.0004 145.184C70.9115 144.583 71.519 143.727 71.8227 142.615H77.973C77.4263 145.139 76.1659 147.168 74.1917 148.701C72.2175 150.234 69.7878 151 66.9024 151Z" fill="white"/>
<path d="M83.1488 150.459V118H88.9802V131.525C89.7395 130.292 90.757 129.331 92.0326 128.639C93.3386 127.918 94.8268 127.557 96.4973 127.557C99.2915 127.557 101.448 128.429 102.966 130.172C104.515 131.915 105.29 134.47 105.29 137.836V150.459H99.5041V138.377C99.5041 136.454 99.1092 134.981 98.3196 133.959C97.5603 132.937 96.3454 132.426 94.6749 132.426C93.0349 132.426 91.6681 132.997 90.5747 134.139C89.5117 135.281 88.9802 136.874 88.9802 138.918V150.459H83.1488Z" fill="white"/>
<path d="M121.253 151C119.127 151 117.229 150.489 115.559 149.467C113.888 148.445 112.567 147.048 111.595 145.275C110.623 143.501 110.137 141.488 110.137 139.234C110.137 136.98 110.623 134.981 111.595 133.238C112.567 131.464 113.888 130.082 115.559 129.09C117.229 128.068 119.127 127.557 121.253 127.557C122.954 127.557 124.442 127.873 125.718 128.504C126.994 129.135 128.026 130.022 128.816 131.164V118H134.647V150.459H129.454L128.816 147.258C128.087 148.25 127.115 149.122 125.9 149.873C124.716 150.624 123.167 151 121.253 151ZM122.483 145.951C124.366 145.951 125.9 145.335 127.085 144.102C128.3 142.84 128.907 141.232 128.907 139.279C128.907 137.325 128.3 135.732 127.085 134.5C125.9 133.238 124.366 132.607 122.483 132.607C120.631 132.607 119.097 133.223 117.882 134.455C116.667 135.687 116.06 137.28 116.06 139.234C116.06 141.187 116.667 142.795 117.882 144.057C119.097 145.32 120.631 145.951 122.483 145.951Z" fill="white"/>
<path d="M151.428 151C149.242 151 147.267 150.504 145.506 149.512C143.775 148.52 142.393 147.153 141.36 145.41C140.358 143.637 139.857 141.593 139.857 139.279C139.857 136.964 140.373 134.936 141.406 133.193C142.438 131.419 143.82 130.037 145.551 129.045C147.313 128.053 149.287 127.557 151.474 127.557C153.63 127.557 155.574 128.053 157.305 129.045C159.067 130.037 160.449 131.419 161.451 133.193C162.484 134.936 163 136.964 163 139.279C163 141.593 162.484 143.637 161.451 145.41C160.449 147.153 159.067 148.52 157.305 149.512C155.544 150.504 153.585 151 151.428 151ZM151.428 145.996C152.947 145.996 154.268 145.44 155.392 144.328C156.516 143.186 157.077 141.503 157.077 139.279C157.077 137.055 156.516 135.387 155.392 134.275C154.268 133.133 152.962 132.561 151.474 132.561C149.925 132.561 148.589 133.133 147.465 134.275C146.371 135.387 145.825 137.055 145.825 139.279C145.825 141.503 146.371 143.186 147.465 144.328C148.589 145.44 149.91 145.996 151.428 145.996Z" fill="white"/>
</svg>
