<svg width="364" height="56" viewBox="0 0 364 56" fill="none" xmlns="http://www.w3.org/2000/svg">
<g opacity="0.5">
<rect width="364" height="56" rx="12" fill="url(#paint0_linear_43_172)"/>
<path d="M156.808 35H155.116L154.918 33.452C154.162 34.694 152.884 35.27 151.372 35.27C148.006 35.27 145.792 32.858 145.792 28.898C145.792 24.956 148.006 22.49 151.588 22.49C154.126 22.49 156.268 23.876 156.826 26.54H154.288C153.91 25.226 152.884 24.506 151.516 24.506C149.464 24.506 148.276 26.162 148.276 28.898C148.276 31.634 149.518 33.254 151.606 33.254C153.118 33.254 154.342 32.39 154.504 30.356H151.858V28.52H156.808V35ZM159.003 35V22.76H167.607V24.686H161.433V27.746H166.923V29.654H161.433V33.074H167.607V35H159.003ZM172.772 35V24.758H168.83V22.76H179.144V24.758H175.202V35H172.772ZM189.526 35.27C185.818 35.27 183.532 32.84 183.532 28.898C183.532 24.956 185.818 22.49 189.526 22.49C193.234 22.49 195.538 24.956 195.538 28.898C195.538 32.84 193.234 35.27 189.526 35.27ZM189.526 33.254C191.74 33.254 193.054 31.616 193.054 28.898C193.054 26.18 191.74 24.506 189.526 24.506C187.312 24.506 186.016 26.162 186.016 28.898C186.016 31.616 187.312 33.254 189.526 33.254ZM200.106 35V24.758H196.164V22.76H206.478V24.758H202.536V35H200.106ZM208.169 35V22.76H212.723C215.657 22.76 217.475 24.272 217.475 26.774C217.475 29.348 215.639 30.824 212.759 30.824H210.599V35H208.169ZM212.687 24.686H210.599V28.898H212.633C214.181 28.898 214.991 28.07 214.991 26.792C214.991 25.514 214.163 24.686 212.687 24.686Z" fill="white"/>
</g>
<defs>
<linearGradient id="paint0_linear_43_172" x1="332.256" y1="56" x2="67.2139" y2="-7.02142" gradientUnits="userSpaceOnUse">
<stop stop-color="#F1784F"/>
<stop offset="1" stop-color="#F4BB58"/>
</linearGradient>
</defs>
</svg>
