<svg width="364" height="56" viewBox="0 0 364 56" fill="none" xmlns="http://www.w3.org/2000/svg">
<rect width="364" height="56" rx="12" fill="url(#paint0_linear_57_105)"/>
<path d="M153.79 22.76L156.958 31.364L157.336 32.714L157.696 31.364L160.864 22.76H163.294L158.686 35H155.842L151.216 22.76H153.79ZM164.722 35V22.76H173.326V24.686H167.152V27.746H172.642V29.654H167.152V33.074H173.326V35H164.722ZM175.269 35V22.76H180.057C182.811 22.76 184.521 24.146 184.521 26.378C184.521 27.746 183.927 28.7 182.883 29.258C183.513 29.654 183.891 30.302 184.143 31.31L185.061 35H182.541L181.821 31.76C181.533 30.5 181.065 30.248 179.859 30.248H177.699V35H175.269ZM180.003 24.686H177.699V28.34H179.949C181.317 28.34 182.037 27.62 182.037 26.504C182.037 25.406 181.299 24.686 180.003 24.686ZM186.747 35V22.76H189.177V35H186.747ZM191.581 35V22.76H200.185V24.686H194.011V28.142H199.501V30.068H194.011V35H191.581ZM205.227 35V30.644L200.943 22.76H203.661L205.983 27.26L206.505 28.574L207.027 27.26L209.349 22.76H211.923L207.639 30.644V35H205.227Z" fill="white"/>
<defs>
<linearGradient id="paint0_linear_57_105" x1="332.256" y1="56" x2="67.2139" y2="-7.02142" gradientUnits="userSpaceOnUse">
<stop stop-color="#F1784F"/>
<stop offset="1" stop-color="#F4BB58"/>
</linearGradient>
</defs>
</svg>
